<mxfile host="app.diagrams.net" modified="2024-04-30T18:00:44.708Z" agent="Mozilla/5.0 (Windows NT 10.0; Win64; x64) AppleWebKit/537.36 (KHTML, like Gecko) Chrome/123.0.0.0 Safari/537.36" etag="FJkmufa7r9zeKf6yZcOY" version="24.3.1" type="device">
  <diagram name="Page-1" id="jisVahLO6OlViJSHX_gp">
    <mxGraphModel dx="469" dy="674" grid="0" gridSize="10" guides="1" tooltips="1" connect="1" arrows="1" fold="1" page="1" pageScale="1" pageWidth="827" pageHeight="1169" math="0" shadow="0">
      <root>
        <mxCell id="0" />
        <mxCell id="1" parent="0" />
        <mxCell id="x0xStdGtatYXF8K5P9bF-18" value="" style="edgeStyle=orthogonalEdgeStyle;rounded=0;orthogonalLoop=1;jettySize=auto;html=1;" edge="1" parent="1" target="x0xStdGtatYXF8K5P9bF-1">
          <mxGeometry relative="1" as="geometry">
            <mxPoint x="430" y="250" as="sourcePoint" />
            <Array as="points">
              <mxPoint x="430" y="260" />
              <mxPoint x="430" y="260" />
            </Array>
          </mxGeometry>
        </mxCell>
        <mxCell id="x0xStdGtatYXF8K5P9bF-1" value="&lt;font face=&quot;Times New Roman&quot;&gt;IR &amp;lt;= M[INST]&amp;nbsp;&lt;/font&gt;" style="rounded=0;whiteSpace=wrap;html=1;" vertex="1" parent="1">
          <mxGeometry x="380" y="270" width="100" height="50" as="geometry" />
        </mxCell>
        <mxCell id="x0xStdGtatYXF8K5P9bF-2" value="&lt;font face=&quot;Times New Roman&quot;&gt;PC &amp;lt;= PC + 1&lt;/font&gt;&lt;div&gt;&lt;font face=&quot;Times New Roman&quot;&gt;&lt;br&gt;&lt;/font&gt;&lt;/div&gt;&lt;div&gt;&lt;font face=&quot;Times New Roman&quot;&gt;Pre-Decode LDA, LDB, STA, and STB&lt;/font&gt;&lt;/div&gt;" style="rounded=0;whiteSpace=wrap;html=1;" vertex="1" parent="1">
          <mxGeometry x="375" y="340" width="110" height="60" as="geometry" />
        </mxCell>
        <mxCell id="x0xStdGtatYXF8K5P9bF-7" value="" style="edgeStyle=orthogonalEdgeStyle;rounded=0;orthogonalLoop=1;jettySize=auto;html=1;exitX=0;exitY=0.5;exitDx=0;exitDy=0;" edge="1" parent="1" source="x0xStdGtatYXF8K5P9bF-3">
          <mxGeometry relative="1" as="geometry">
            <mxPoint x="330.0408163265305" y="439.9985714285715" as="sourcePoint" />
            <mxPoint x="310" y="499.9985714285715" as="targetPoint" />
            <Array as="points">
              <mxPoint x="310" y="465" />
            </Array>
          </mxGeometry>
        </mxCell>
        <mxCell id="x0xStdGtatYXF8K5P9bF-8" value="" style="edgeStyle=orthogonalEdgeStyle;rounded=0;orthogonalLoop=1;jettySize=auto;html=1;exitX=1;exitY=0.5;exitDx=0;exitDy=0;" edge="1" parent="1" source="x0xStdGtatYXF8K5P9bF-3">
          <mxGeometry relative="1" as="geometry">
            <mxPoint x="490.72999999999996" y="465.98" as="sourcePoint" />
            <mxPoint x="555.0585714285713" y="500" as="targetPoint" />
            <Array as="points">
              <mxPoint x="555" y="465" />
            </Array>
          </mxGeometry>
        </mxCell>
        <mxCell id="x0xStdGtatYXF8K5P9bF-3" value="&lt;font face=&quot;Times New Roman&quot;&gt;IR[31:28]&lt;/font&gt;" style="rhombus;whiteSpace=wrap;html=1;" vertex="1" parent="1">
          <mxGeometry x="380" y="430" width="100" height="70" as="geometry" />
        </mxCell>
        <mxCell id="x0xStdGtatYXF8K5P9bF-10" value="" style="edgeStyle=orthogonalEdgeStyle;rounded=0;orthogonalLoop=1;jettySize=auto;html=1;" edge="1" parent="1" source="x0xStdGtatYXF8K5P9bF-4">
          <mxGeometry relative="1" as="geometry">
            <mxPoint x="310" y="600" as="targetPoint" />
          </mxGeometry>
        </mxCell>
        <mxCell id="x0xStdGtatYXF8K5P9bF-4" value="&lt;font face=&quot;Times New Roman&quot;&gt;Direct Addressing&amp;nbsp;&lt;/font&gt;" style="rounded=0;whiteSpace=wrap;html=1;" vertex="1" parent="1">
          <mxGeometry x="260" y="500" width="100" height="50" as="geometry" />
        </mxCell>
        <mxCell id="x0xStdGtatYXF8K5P9bF-12" value="" style="edgeStyle=orthogonalEdgeStyle;rounded=0;orthogonalLoop=1;jettySize=auto;html=1;" edge="1" parent="1" source="x0xStdGtatYXF8K5P9bF-5">
          <mxGeometry relative="1" as="geometry">
            <mxPoint x="550" y="600" as="targetPoint" />
          </mxGeometry>
        </mxCell>
        <mxCell id="x0xStdGtatYXF8K5P9bF-5" value="&lt;font face=&quot;Times New Roman&quot;&gt;Data Procesing&lt;/font&gt;" style="rounded=0;whiteSpace=wrap;html=1;" vertex="1" parent="1">
          <mxGeometry x="500" y="500" width="100" height="50" as="geometry" />
        </mxCell>
        <mxCell id="x0xStdGtatYXF8K5P9bF-13" value="" style="endArrow=none;html=1;rounded=0;" edge="1" parent="1">
          <mxGeometry width="50" height="50" relative="1" as="geometry">
            <mxPoint x="310" y="600" as="sourcePoint" />
            <mxPoint x="620" y="600" as="targetPoint" />
          </mxGeometry>
        </mxCell>
        <mxCell id="x0xStdGtatYXF8K5P9bF-14" value="" style="endArrow=none;html=1;rounded=0;" edge="1" parent="1">
          <mxGeometry width="50" height="50" relative="1" as="geometry">
            <mxPoint x="620" y="600" as="sourcePoint" />
            <mxPoint x="620" y="250" as="targetPoint" />
          </mxGeometry>
        </mxCell>
        <mxCell id="x0xStdGtatYXF8K5P9bF-16" value="" style="endArrow=none;html=1;rounded=0;" edge="1" parent="1">
          <mxGeometry width="50" height="50" relative="1" as="geometry">
            <mxPoint x="430" y="250" as="sourcePoint" />
            <mxPoint x="620" y="250" as="targetPoint" />
          </mxGeometry>
        </mxCell>
        <mxCell id="x0xStdGtatYXF8K5P9bF-21" value="" style="endArrow=classic;html=1;rounded=0;exitX=0.5;exitY=1;exitDx=0;exitDy=0;entryX=0.5;entryY=0;entryDx=0;entryDy=0;" edge="1" parent="1" source="x0xStdGtatYXF8K5P9bF-1" target="x0xStdGtatYXF8K5P9bF-2">
          <mxGeometry width="50" height="50" relative="1" as="geometry">
            <mxPoint x="390" y="500" as="sourcePoint" />
            <mxPoint x="440" y="450" as="targetPoint" />
          </mxGeometry>
        </mxCell>
        <mxCell id="x0xStdGtatYXF8K5P9bF-22" value="" style="endArrow=classic;html=1;rounded=0;exitX=0.5;exitY=1;exitDx=0;exitDy=0;" edge="1" parent="1" source="x0xStdGtatYXF8K5P9bF-2" target="x0xStdGtatYXF8K5P9bF-3">
          <mxGeometry width="50" height="50" relative="1" as="geometry">
            <mxPoint x="429" y="410" as="sourcePoint" />
            <mxPoint x="520" y="400" as="targetPoint" />
          </mxGeometry>
        </mxCell>
        <mxCell id="x0xStdGtatYXF8K5P9bF-23" value="&lt;font face=&quot;Times New Roman&quot;&gt;T0&lt;/font&gt;" style="text;html=1;align=center;verticalAlign=middle;resizable=0;points=[];autosize=1;strokeColor=none;fillColor=none;" vertex="1" parent="1">
          <mxGeometry x="330" y="280" width="40" height="30" as="geometry" />
        </mxCell>
        <mxCell id="x0xStdGtatYXF8K5P9bF-24" value="&lt;font face=&quot;Times New Roman&quot;&gt;T1&lt;/font&gt;" style="text;html=1;align=center;verticalAlign=middle;resizable=0;points=[];autosize=1;strokeColor=none;fillColor=none;" vertex="1" parent="1">
          <mxGeometry x="330" y="355" width="40" height="30" as="geometry" />
        </mxCell>
        <mxCell id="x0xStdGtatYXF8K5P9bF-25" value="&lt;font face=&quot;Times New Roman&quot;&gt;T2&lt;/font&gt;" style="text;html=1;align=center;verticalAlign=middle;resizable=0;points=[];autosize=1;strokeColor=none;fillColor=none;" vertex="1" parent="1">
          <mxGeometry x="220" y="510" width="40" height="30" as="geometry" />
        </mxCell>
        <mxCell id="x0xStdGtatYXF8K5P9bF-26" value="&lt;span style=&quot;color: rgb(0, 0, 0); font-family: &amp;quot;Times New Roman&amp;quot;; font-size: 12px; font-style: normal; font-variant-ligatures: normal; font-variant-caps: normal; font-weight: 400; letter-spacing: normal; orphans: 2; text-align: center; text-indent: 0px; text-transform: none; widows: 2; word-spacing: 0px; -webkit-text-stroke-width: 0px; white-space: nowrap; background-color: rgb(251, 251, 251); text-decoration-thickness: initial; text-decoration-style: initial; text-decoration-color: initial; display: inline !important; float: none;&quot;&gt;T2&lt;/span&gt;" style="text;whiteSpace=wrap;html=1;" vertex="1" parent="1">
          <mxGeometry x="470" y="510" width="50" height="40" as="geometry" />
        </mxCell>
        <mxCell id="x0xStdGtatYXF8K5P9bF-27" value="&lt;font face=&quot;Times New Roman&quot;&gt;0111&lt;/font&gt;" style="text;html=1;align=center;verticalAlign=middle;resizable=0;points=[];autosize=1;strokeColor=none;fillColor=none;" vertex="1" parent="1">
          <mxGeometry x="500" y="440" width="50" height="30" as="geometry" />
        </mxCell>
        <mxCell id="x0xStdGtatYXF8K5P9bF-28" value="&lt;font face=&quot;Times New Roman&quot;&gt;Else&lt;/font&gt;" style="text;html=1;align=center;verticalAlign=middle;resizable=0;points=[];autosize=1;strokeColor=none;fillColor=none;" vertex="1" parent="1">
          <mxGeometry x="330" y="440" width="40" height="30" as="geometry" />
        </mxCell>
      </root>
    </mxGraphModel>
  </diagram>
</mxfile>
